# xmcd
# 
# Track frame offsets:
#     150
#     26527
#     56852
#     73487
#     100207
#     115372
#     139800
#     158805
#     175402
#     197030
#     220080
# 
# Disc length: 3106
# 
# Revision: 1
# Processed by: cddbd v1.5.2PL0 Copyright (c) Steve Scherf et al.
# Submitted via: BonkEnc v1.0.8
# 
DISCID=a90c200b
DTITLE=J.C. Rico - First Offense
DYEAR=1994
DGENRE=Blues
TTITLE0=Sign Of The Times
TTITLE1=Old Catfish Song
TTITLE2=Outside Lookin' Back In
TTITLE3=Never Gonna Change
TTITLE4=Long Time Gone
TTITLE5=Blues Feel Good
TTITLE6=Cry To Me
TTITLE7=Who Ya Gonna Tell
TTITLE8=I Know Her Too
TTITLE9=Drive By Blues
TTITLE10=Amazing Grace
EXTD=
EXTT0=
EXTT1=
EXTT2=
EXTT3=
EXTT4=
EXTT5=
EXTT6=
EXTT7=
EXTT8=
EXTT9=
EXTT10=
PLAYORDER=
